<svg version="1.0" xmlns="http://www.w3.org/2000/svg"
 width="699.000000pt" height="357.000000pt" viewBox="0 0 699.000000 357.000000"
 preserveAspectRatio="xMidYMid meet">
<g transform="translate(0.000000,357.000000) scale(0.100000,-0.100000)"
fill="#128FFF" stroke="none">
<path d="M174 3499 c-11 -6 -28 -23 -37 -39 -15 -25 -17 -92 -17 -725 0 -760
-1 -740 57 -764 20 -8 213 -11 713 -9 678 3 685 3 688 23 2 15 -34 56 -126
148 -123 121 -131 127 -156 117 -101 -38 -206 34 -206 143 0 155 189 207 278
76 21 -30 23 -42 18 -99 l-5 -65 123 -128 c87 -90 130 -128 143 -125 17 3 18
33 21 705 l2 701 -31 26 -31 26 -283 0 -283 0 -176 -176 c-128 -128 -175 -181
-171 -193 27 -66 11 -135 -40 -180 -46 -40 -93 -48 -150 -26 -51 19 -80 51
-96 106 -10 32 -9 46 5 84 30 78 108 117 187 94 l40 -13 132 132 c113 113 130
135 121 149 -10 17 -40 18 -355 20 -217 1 -352 -2 -365 -8z m1146 -298 c97
-69 92 -190 -10 -259 -28 -19 -44 -23 -80 -19 -25 2 -53 8 -62 12 -24 10 -483
-448 -473 -473 32 -80 2 -167 -71 -203 -104 -50 -217 21 -217 136 0 59 29 104
86 134 44 22 52 23 100 12 l51 -12 227 227 228 227 -6 67 c-8 95 16 137 94
166 45 16 98 10 133 -15z"/>
<path d="M70 801 l0 -471 183 0 c225 0 262 9 341 81 92 84 136 207 136 384 0
225 -71 370 -216 441 -57 28 -63 29 -251 32 l-193 4 0 -471z m361 318 c97 -33
149 -143 149 -319 0 -96 -15 -169 -46 -232 -43 -84 -101 -111 -232 -106 l-77
3 -3 333 -2 332 88 0 c49 0 104 -5 123 -11z"/>
<path d="M2710 1200 l0 -70 33 0 c31 -1 34 -5 119 -164 l88 -164 -89 -168 -89
-169 -41 -3 -41 -3 0 -65 0 -64 150 0 150 0 0 65 c0 58 -2 65 -20 65 -28 0
-25 13 24 115 l44 90 46 -97 c25 -54 46 -100 46 -103 0 -3 -11 -5 -25 -5 -24
0 -25 -2 -25 -65 l0 -65 155 0 155 0 0 65 0 65 -39 0 c-21 0 -43 6 -49 12 -18
23 -172 317 -172 329 0 7 39 84 86 171 85 156 86 158 120 158 l34 0 0 70 0 71
-147 -3 -148 -3 -3 -67 -3 -67 30 -3 31 -3 -43 -92 c-23 -51 -46 -91 -50 -90
-7 2 -87 169 -87 182 0 3 11 5 25 5 24 0 25 2 25 70 l0 70 -145 0 -145 0 0
-70z"/>
<path d="M6617 1264 c-4 -4 -7 -36 -7 -71 l0 -63 65 0 65 0 0 -95 0 -95 -57
32 c-51 29 -67 33 -128 32 -174 -1 -295 -143 -295 -345 0 -197 125 -347 291
-349 53 0 117 20 160 50 l29 21 0 -25 c0 -26 1 -26 75 -26 l75 0 -2 468 -3
467 -131 3 c-71 1 -133 -1 -137 -4z m78 -420 l40 -19 0 -165 0 -165 -45 -22
c-81 -42 -180 -26 -232 35 -37 45 -51 94 -46 172 3 55 9 75 33 110 54 78 156
100 250 54z"/>
<path d="M1160 995 c-140 -40 -233 -151 -247 -298 -6 -67 8 -149 34 -201 41
-80 132 -148 236 -176 103 -28 270 6 347 69 32 27 33 31 21 53 -7 14 -22 37
-34 52 l-22 27 -68 -35 c-61 -32 -77 -36 -145 -36 -93 0 -149 24 -184 78 -51
78 -70 72 238 72 234 0 275 2 280 15 9 24 -15 141 -40 200 -66 147 -248 226
-416 180z m206 -151 c35 -19 84 -74 84 -95 0 -5 -85 -9 -190 -9 -104 0 -190 3
-190 8 0 27 47 76 93 98 63 30 141 29 203 -2z"/>
<path d="M3818 999 c-79 -18 -162 -92 -202 -178 -17 -38 -21 -65 -21 -161 0
-98 3 -122 22 -163 53 -115 137 -176 252 -185 61 -4 71 -1 134 31 l67 36 0
-160 0 -159 75 0 75 0 0 470 0 470 -75 0 -75 0 0 -30 c0 -33 -11 -38 -30 -15
-17 20 -115 55 -153 54 -18 -1 -49 -5 -69 -10z m200 -154 l52 -24 -2 -163 -3
-163 -45 -22 c-73 -38 -165 -29 -219 20 -75 69 -83 242 -13 321 25 28 92 56
137 56 22 0 64 -11 93 -25z"/>
<path d="M5585 996 c-74 -18 -175 -62 -175 -77 0 -6 12 -33 27 -61 19 -36 31
-47 42 -42 207 84 371 65 371 -44 0 -15 -13 -17 -112 -17 -128 0 -215 -23
-287 -75 -115 -84 -108 -259 14 -335 44 -27 56 -30 134 -30 99 0 144 13 206
61 l45 34 0 -40 0 -40 76 0 75 0 -3 258 c-3 280 -5 287 -65 344 -69 66 -221
93 -348 64z m249 -372 c35 -13 10 -93 -41 -130 -42 -31 -89 -44 -158 -44 -161
0 -165 138 -5 171 45 9 183 11 204 3z"/>
<path d="M1820 991 c0 -8 22 -70 173 -481 l64 -175 90 -3 90 -3 27 73 c52 138
216 589 216 594 0 2 -35 4 -79 4 l-78 0 -47 -137 c-26 -76 -64 -186 -84 -245
-21 -60 -39 -108 -42 -108 -3 0 -43 110 -90 245 l-85 245 -77 0 c-43 0 -78 -4
-78 -9z"/>
<path d="M4512 742 l3 -258 30 -60 c26 -50 38 -63 85 -87 48 -25 63 -28 117
-24 85 6 144 42 183 110 l30 52 0 -72 0 -73 75 0 75 0 0 335 0 335 -75 0 -75
0 0 -178 c0 -197 -11 -258 -56 -312 -37 -43 -75 -60 -134 -60 -42 0 -55 5 -74
25 -31 33 -36 78 -36 321 l0 204 -76 0 -75 0 3 -258z"/>
</g>
</svg>
